<svg preserveAspectRatio="none" overflow="visible" style="display: block;" width="190" height="190" viewBox="0 0 190 190" fill="none" xmlns="http://www.w3.org/2000/svg">
<g id="Frame">
<path id="Vector" d="M108.571 10.1333H81.4286C75.4323 10.1333 70.5714 14.6702 70.5714 20.2667V32.9333C70.5714 38.5298 75.4323 43.0667 81.4286 43.0667H108.571C114.568 43.0667 119.429 38.5298 119.429 32.9333V20.2667C119.429 14.6702 114.568 10.1333 108.571 10.1333Z" fill="var(--color-gold)"/>
<path id="Vector_2" d="M105.857 43.0667H84.1429V78.5333H105.857V43.0667Z" fill="var(--color-encre)"/>
<path id="Vector_3" d="M40.7143 78.5333C76.9048 65.0222 113.095 65.0222 149.286 78.5333L157.429 111.467H32.5714L40.7143 78.5333Z" fill="var(--color-encre)"/>
<path id="Vector_4" d="M157.429 111.467H32.5714C28.0743 111.467 24.4286 114.869 24.4286 119.067V121.6C24.4286 125.797 28.0743 129.2 32.5714 129.2H157.429C161.926 129.2 165.571 125.797 165.571 121.6V119.067C165.571 114.869 161.926 111.467 157.429 111.467Z" fill="var(--color-periwinkle)"/>
<path id="Vector_5" d="M95 177.333C124.981 177.333 149.286 170.528 149.286 162.133C149.286 153.739 124.981 146.933 95 146.933C65.0188 146.933 40.7143 153.739 40.7143 162.133C40.7143 170.528 65.0188 177.333 95 177.333Z" fill="var(--color-pale-blue)"/>
<path id="Vector_6" d="M95 169.733C111.49 169.733 124.857 166.331 124.857 162.133C124.857 157.936 111.49 154.533 95 154.533C78.5104 154.533 65.1429 157.936 65.1429 162.133C65.1429 166.331 78.5104 169.733 95 169.733Z" fill="var(--color-periwinkle)"/>
</g>
</svg>
