<svg width="549.055" height="304.666" viewBox="0 0 549.055 304.666" fill="none" xmlns="http://www.w3.org/2000/svg">
<g id="Group 1948755438">
<path id="Vector" d="M396.458 28.916C404.443 28.916 410.916 22.443 410.916 14.458C410.916 6.47307 404.443 0 396.458 0C388.473 0 382 6.47307 382 14.458C382 22.443 388.473 28.916 396.458 28.916Z" fill="var(--color-pale-gold)"/>
<g id="Group" opacity="0.45">
<path id="Vector_2" d="M197.973 123.941H183.515V189.002H197.973V123.941Z" fill="#94A3C4"/>
<path id="Vector_3" d="M313.638 116.712H300.987V189.002H313.638V116.712Z" fill="#94A3C4"/>
<path id="Vector_4" d="M253.999 131.17H243.156V189.002H253.999V131.17Z" fill="#94A3C4"/>
</g>
<g id="Group_2">
<path id="Vector_5" d="M181.708 66.1085H138.334V232.376H181.708V66.1085Z" fill="var(--color-pale-periwinkle)"/>
<g id="Vector_6">
<path d="M149.177 66.1085V232.376ZM160.021 66.1085V232.376ZM170.864 66.1085V232.376Z" fill="black"/>
<path d="M149.177 66.1085V232.376M160.021 66.1085V232.376M170.864 66.1085V232.376" stroke="#94A3C4" stroke-width="2"/>
</g>
<g id="Vector_7">
<path d="M138.334 85.9883H181.708ZM138.334 109.483H181.708ZM138.334 132.977H181.708ZM138.334 156.471H181.708ZM138.334 179.965H181.708ZM138.334 203.46H181.708Z" fill="black"/>
<path d="M138.334 85.9883H181.708M138.334 109.483H181.708M138.334 132.977H181.708M138.334 156.471H181.708M138.334 179.965H181.708M138.334 203.46H181.708" stroke="#94A3C4" stroke-width="1.6"/>
</g>
<path id="Vector_8" d="M172.67 57.0725H147.368V66.1088H172.67V57.0725Z" fill="#94A3C4"/>
</g>
<g id="Group_3">
<path id="Vector_9" d="M125.374 124.844H82V232.376H125.374V124.844Z" fill="var(--color-pale-periwinkle)"/>
<g id="Vector_10">
<path d="M92.8398 124.844V232.376ZM103.683 124.844V232.376ZM114.527 124.844V232.376Z" fill="black"/>
<path d="M92.8398 124.844V232.376M103.683 124.844V232.376M114.527 124.844V232.376" stroke="#94A3C4" stroke-width="2"/>
</g>
<g id="Vector_11">
<path d="M82 137.701H125.374ZM82 152.896H125.374ZM82 168.09H125.374ZM82 183.285H125.374ZM82 198.48H125.374ZM82 213.675H125.374Z" fill="black"/>
<path d="M82 137.701H125.374M82 152.896H125.374M82 168.09H125.374M82 183.285H125.374M82 198.48H125.374M82 213.675H125.374" stroke="#94A3C4" stroke-width="1.6"/>
</g>
<path id="Vector_12" d="M116.337 119H91.0352V124.844H116.337V119Z" fill="#94A3C4"/>
</g>
<g id="Group_4">
<path id="Vector_13" d="M78.3741 22.4107H35V232.376H78.3741V22.4107Z" fill="var(--color-pale-periwinkle)"/>
<g id="Vector_14">
<path d="M45.8398 22.4107V232.376ZM56.6834 22.4107V232.376ZM67.5269 22.4107V232.376Z" fill="black"/>
<path d="M45.8398 22.4107V232.376M56.6834 22.4107V232.376M67.5269 22.4107V232.376" stroke="#94A3C4" stroke-width="2"/>
</g>
<g id="Vector_15">
<path d="M35 47.515H78.3741ZM35 77.184H78.3741ZM35 106.853H78.3741ZM35 136.522H78.3741ZM35 166.191H78.3741ZM35 195.86H78.3741Z" fill="black"/>
<path d="M35 47.515H78.3741M35 77.184H78.3741M35 106.853H78.3741M35 136.522H78.3741M35 166.191H78.3741M35 195.86H78.3741" stroke="#94A3C4" stroke-width="1.6"/>
</g>
<path id="Vector_16" d="M69.3367 10.9999H44.0352V22.411H69.3367V10.9999Z" fill="#94A3C4"/>
</g>
<g id="Group_5">
<path id="Vector_17" d="M43.3741 66.1086H0V232.376H43.3741V66.1086Z" fill="var(--color-pale-periwinkle)"/>
<g id="Vector_18">
<path d="M10.8382 66.1086V232.376ZM21.6817 66.1086V232.376ZM32.5252 66.1086V232.376Z" fill="black"/>
<path d="M10.8382 66.1086V232.376M21.6817 66.1086V232.376M32.5252 66.1086V232.376" stroke="#94A3C4" stroke-width="2"/>
</g>
<g id="Vector_19">
<path d="M0 85.9884H43.3741ZM0 109.483H43.3741ZM0 132.977H43.3741ZM0 156.471H43.3741ZM0 179.965H43.3741ZM0 203.46H43.3741Z" fill="black"/>
<path d="M0 85.9884H43.3741M0 109.483H43.3741M0 132.977H43.3741M0 156.471H43.3741M0 179.965H43.3741M0 203.46H43.3741" stroke="#94A3C4" stroke-width="1.6"/>
</g>
<path id="Vector_20" d="M34.3361 57.0726H9.0346V66.1089H34.3361V57.0726Z" fill="#94A3C4"/>
</g>
<g id="Group_6">
<path id="Vector_21" d="M360.629 57.0725H317.255V232.376H360.629V57.0725Z" fill="var(--color-pale-blue)"/>
<g id="Vector_22">
<path d="M328.093 57.0725V232.376ZM338.937 57.0725V232.376ZM349.78 57.0725V232.376Z" fill="black"/>
<path d="M328.093 57.0725V232.376M338.937 57.0725V232.376M349.78 57.0725V232.376" stroke="#94A3C4" stroke-width="1.6"/>
</g>
<g id="Vector_23">
<path d="M317.255 78.7597H360.629ZM317.255 102.254H360.629ZM317.255 125.748H360.629ZM317.255 149.243H360.629ZM317.255 172.737H360.629ZM317.255 196.231H360.629Z" fill="black"/>
<path d="M317.255 78.7597H360.629M317.255 102.254H360.629M317.255 125.748H360.629M317.255 149.243H360.629M317.255 172.737H360.629M317.255 196.231H360.629" stroke="#94A3C4" stroke-width="1.6"/>
</g>
<g id="Vector_24" opacity="0.55">
<path d="M320.868 223.339L357.013 69.723Z" fill="black"/>
<path d="M320.868 223.339L357.013 69.723" stroke="var(--color-lilas)" stroke-width="9"/>
</g>
<path id="Vector_25" d="M360.629 57.0725H317.255V61.5907H360.629V57.0725Z" fill="var(--color-gold)"/>
</g>
<g id="Group_7">
<path id="Vector_26" d="M422.374 98H379V230.376H422.374V98Z" fill="var(--color-pale-blue)"/>
<g id="Vector_27">
<path d="M389.84 98V230.376ZM400.683 98V230.376ZM411.527 98V230.376Z" fill="black"/>
<path d="M389.84 98V230.376M400.683 98V230.376M411.527 98V230.376" stroke="#94A3C4" stroke-width="1.6"/>
</g>
<g id="Vector_28">
<path d="M379 114.376H422.374ZM379 132.118H422.374ZM379 149.859H422.374ZM379 167.6H422.374ZM379 185.341H422.374ZM379 203.082H422.374Z" fill="black"/>
<path d="M379 114.376H422.374M379 132.118H422.374M379 149.859H422.374M379 167.6H422.374M379 185.341H422.374M379 203.082H422.374" stroke="#94A3C4" stroke-width="1.6"/>
</g>
<g id="Vector_29" opacity="0.55">
<path d="M382.613 223.552L418.758 107.553Z" fill="black"/>
<path d="M382.613 223.552L418.758 107.553" stroke="var(--color-lilas)" stroke-width="9"/>
</g>
<path id="Vector_30" d="M422.374 98H379V101.412H422.374V98Z" fill="var(--color-gold)"/>
</g>
<g id="Group_8">
<path id="Vector_31" d="M465.374 0H422V244.376H465.374V0Z" fill="var(--color-pale-blue)"/>
<g id="Vector_32">
<path d="M432.84 0V244.376ZM443.683 0V244.376ZM454.527 0V244.376Z" fill="black"/>
<path d="M432.84 0V244.376M443.683 0V244.376M454.527 0V244.376" stroke="#94A3C4" stroke-width="1.6"/>
</g>
<g id="Vector_33">
<path d="M422 30.2322H465.374ZM422 62.9836H465.374ZM422 95.7351H465.374ZM422 128.487H465.374ZM422 161.238H465.374ZM422 193.989H465.374Z" fill="black"/>
<path d="M422 30.2322H465.374M422 62.9836H465.374M422 95.7351H465.374M422 128.487H465.374M422 161.238H465.374M422 193.989H465.374" stroke="#94A3C4" stroke-width="1.6"/>
</g>
<g id="Vector_34" opacity="0.55">
<path d="M425.613 231.779L461.758 17.6346Z" fill="black"/>
<path d="M425.613 231.779L461.758 17.6346" stroke="var(--color-lilas)" stroke-width="9"/>
</g>
<path id="Vector_35" d="M465.374 0H422V6.29836H465.374V0Z" fill="var(--color-gold)"/>
</g>
<g id="Group_9">
<path id="Vector_36" d="M507.374 98H464V230.376H507.374V98Z" fill="var(--color-pale-blue)"/>
<g id="Vector_37">
<path d="M474.84 98V230.376ZM485.683 98V230.376ZM496.527 98V230.376Z" fill="black"/>
<path d="M474.84 98V230.376M485.683 98V230.376M496.527 98V230.376" stroke="#94A3C4" stroke-width="1.6"/>
</g>
<g id="Vector_38">
<path d="M464 114.376H507.374ZM464 132.118H507.374ZM464 149.859H507.374ZM464 167.6H507.374ZM464 185.341H507.374ZM464 203.082H507.374Z" fill="black"/>
<path d="M464 114.376H507.374M464 132.118H507.374M464 149.859H507.374M464 167.6H507.374M464 185.341H507.374M464 203.082H507.374" stroke="#94A3C4" stroke-width="1.6"/>
</g>
<g id="Vector_39" opacity="0.55">
<path d="M467.613 223.552L503.758 107.553Z" fill="black"/>
<path d="M467.613 223.552L503.758 107.553" stroke="var(--color-lilas)" stroke-width="9"/>
</g>
<path id="Vector_40" d="M507.374 98H464V101.412H507.374V98Z" fill="var(--color-gold)"/>
</g>
<g id="Group_10">
<path id="Vector_41" d="M548.374 98H505V230.376H548.374V98Z" fill="var(--color-pale-blue)"/>
<g id="Vector_42">
<path d="M515.84 98V230.376ZM526.683 98V230.376ZM537.527 98V230.376Z" fill="black"/>
<path d="M515.84 98V230.376M526.683 98V230.376M537.527 98V230.376" stroke="#94A3C4" stroke-width="1.6"/>
</g>
<g id="Vector_43">
<path d="M505 114.376H548.374ZM505 132.118H548.374ZM505 149.859H548.374ZM505 167.6H548.374ZM505 185.341H548.374ZM505 203.082H548.374Z" fill="black"/>
<path d="M505 114.376H548.374M505 132.118H548.374M505 149.859H548.374M505 167.6H548.374M505 185.341H548.374M505 203.082H548.374" stroke="#94A3C4" stroke-width="1.6"/>
</g>
<g id="Vector_44" opacity="0.55">
<path d="M508.613 223.552L544.758 107.553Z" fill="black"/>
<path d="M508.613 223.552L544.758 107.553" stroke="var(--color-lilas)" stroke-width="9"/>
</g>
<path id="Vector_45" d="M548.374 98H505V101.412H548.374V98Z" fill="var(--color-gold)"/>
</g>
<path id="Vector_46" d="M306.407 67.916H192.55C190.554 67.916 188.935 69.5343 188.935 71.5306V185.387C188.935 187.384 190.554 189.002 192.55 189.002H306.407C308.403 189.002 310.021 187.384 310.021 185.387V71.5306C310.021 69.5343 308.403 67.916 306.407 67.916Z" fill="var(--color-lilas)"/>
<g id="Vector_47">
<path d="M201.586 67.916V189.002ZM297.37 67.916V189.002ZM188.935 80.5668H310.021ZM188.935 176.351H310.021Z" fill="black"/>
<path d="M201.586 67.916V189.002M297.37 67.916V189.002M188.935 80.5668H310.021M188.935 176.351H310.021" stroke="var(--color-pale-blue)" stroke-width="2"/>
</g>
<g id="Vector_48">
<path d="M226.888 67.916V80.5668ZM249.478 67.916V80.5668ZM272.069 67.916V80.5668ZM226.888 176.351V189.002ZM249.478 176.351V189.002ZM272.069 176.351V189.002ZM188.935 105.868H201.586ZM188.935 128.459H201.586ZM188.935 151.05H201.586ZM297.37 105.868H310.021ZM297.37 128.459H310.021ZM297.37 151.05H310.021Z" fill="black"/>
<path d="M226.888 67.916V80.5668M249.478 67.916V80.5668M272.069 67.916V80.5668M226.888 176.351V189.002M249.478 176.351V189.002M272.069 176.351V189.002M188.935 105.868H201.586M188.935 128.459H201.586M188.935 151.05H201.586M297.37 105.868H310.021M297.37 128.459H310.021M297.37 151.05H310.021" stroke="var(--color-pale-blue)" stroke-width="1.6"/>
</g>
<path id="Vector_49" d="M284.718 93.2176H214.235V163.7H284.718V93.2176Z" fill="var(--color-lilas-2)"/>
<path id="Vector_50" d="M214.235 93.2176H284.718L276.586 103.158H222.368L214.235 93.2176Z" fill="var(--color-pale-periwinkle)"/>
<path id="Vector_51" d="M214.235 93.2176L222.368 103.158V153.761L214.235 163.7V93.2176Z" fill="var(--color-pale-blue)"/>
<path id="Vector_52" opacity="0.55" d="M284.722 93.2176L276.59 103.158V153.761L284.722 163.7V93.2176Z" fill="#94A3C4"/>
<path id="Vector_53" d="M214.235 163.7L222.368 153.76H276.586L284.718 163.7H214.235Z" fill="var(--color-sand)"/>
<path id="Vector_54" opacity="0.95" d="M225.079 143.821C241.344 136.592 257.61 136.592 273.875 143.821V149.242C257.61 143.218 241.344 143.218 225.079 149.242V143.821Z" fill="var(--color-lilas)"/>
<g id="Vector_55">
<path d="M230.501 134.785V143.821ZM243.152 131.17V141.11ZM255.803 131.17V141.11ZM268.453 134.785V143.821Z" fill="black"/>
<path d="M230.501 134.785V143.821M243.152 131.17V141.11M255.803 131.17V141.11M268.453 134.785V143.821" stroke="#94A3C4" stroke-width="1.5"/>
</g>
<path id="Vector_56" d="M310.021 189.002H188.935V196.231H310.021V189.002Z" fill="var(--color-pale-blue)"/>
<g id="Group_11">
<path id="Vector_57" d="M304.598 201.653H194.356V208.882H304.598V201.653Z" fill="var(--color-stone)"/>
<path id="Vector_58" opacity="0.4" d="M304.598 208.882H194.356V211.592H304.598V208.882Z" fill="#94A3C4"/>
<path id="Vector_59" d="M313.636 213.4H185.321V220.629H313.636V213.4Z" fill="var(--color-stone)"/>
<path id="Vector_60" opacity="0.4" d="M313.636 220.629H185.321V223.34H313.636V220.629Z" fill="#94A3C4"/>
<path id="Vector_61" d="M324.485 225.147H174.483V232.376H324.485V225.147Z" fill="var(--color-stone)"/>
<path id="Vector_62" opacity="0.4" d="M324.485 232.376H174.483V235.087H324.485V232.376Z" fill="#94A3C4"/>
<path id="Vector_63" d="M335.323 236.894H163.634V244.123H335.323V236.894Z" fill="var(--color-stone)"/>
<path id="Vector_64" opacity="0.4" d="M335.323 244.123H163.634V246.834H335.323V244.123Z" fill="#94A3C4"/>
<path id="Vector_65" d="M346.166 248.641H152.79V255.87H346.166V248.641Z" fill="var(--color-stone)"/>
<path id="Vector_66" opacity="0.4" d="M346.166 255.87H152.79V258.581H346.166V255.87Z" fill="#94A3C4"/>
<path id="Vector_67" d="M355.204 260.389H143.756V267.618H355.204V260.389Z" fill="var(--color-stone)"/>
</g>
<g id="Vector_68">
<path d="M243.154 199.846V266.714ZM255.805 199.846V266.714Z" fill="black"/>
<path d="M243.154 199.846V266.714M255.805 199.846V266.714" stroke="var(--color-encre)" stroke-width="3"/>
</g>
<g id="Vector_69">
<path d="M243.149 208.882H238.631ZM243.149 232.376H238.631ZM243.149 255.87H238.631ZM255.8 208.882H260.318ZM255.8 232.376H260.318ZM255.8 255.87H260.318Z" fill="black"/>
<path d="M243.149 208.882H238.631M243.149 232.376H238.631M243.149 255.87H238.631M255.8 208.882H260.318M255.8 232.376H260.318M255.8 255.87H260.318" stroke="var(--color-encre)" stroke-width="2.5"/>
</g>
<path id="Vector_70" d="M362.438 270.328H136.531V304.666H362.438V270.328Z" fill="var(--color-stone)"/>
<g id="Vector_71">
<path d="M136.531 284.786H362.438ZM136.531 297.437H362.438Z" fill="black"/>
<path d="M136.531 284.786H362.438M136.531 297.437H362.438" stroke="var(--color-sand)" stroke-width="2"/>
</g>
<path id="Vector_72" d="M167.251 279.364C174.238 279.364 179.902 273.7 179.902 266.714C179.902 259.727 174.238 254.063 167.251 254.063C160.264 254.063 154.6 259.727 154.6 266.714C154.6 273.7 160.264 279.364 167.251 279.364Z" fill="var(--color-result-green)"/>
<path id="Vector_73" d="M169.961 275.75H164.54V286.594H169.961V275.75Z" fill="var(--color-brique)"/>
<path id="Vector_74" d="M174.484 286.593H160.026C159.028 286.593 158.219 287.403 158.219 288.401V293.822C158.219 294.821 159.028 295.63 160.026 295.63H174.484C175.482 295.63 176.291 294.821 176.291 293.822V288.401C176.291 287.403 175.482 286.593 174.484 286.593Z" fill="var(--color-encre)"/>
<path id="Vector_75" d="M331.711 279.364C338.698 279.364 344.362 273.7 344.362 266.714C344.362 259.727 338.698 254.063 331.711 254.063C324.724 254.063 319.06 259.727 319.06 266.714C319.06 273.7 324.724 279.364 331.711 279.364Z" fill="var(--color-result-green)"/>
<path id="Vector_76" d="M334.421 275.75H328.999V286.594H334.421V275.75Z" fill="var(--color-brique)"/>
<path id="Vector_77" d="M338.938 286.593H324.48C323.482 286.593 322.673 287.403 322.673 288.401V293.822C322.673 294.821 323.482 295.63 324.48 295.63H338.938C339.936 295.63 340.745 294.821 340.745 293.822V288.401C340.745 287.403 339.936 286.593 338.938 286.593Z" fill="var(--color-encre)"/>
<path id="Vector_78" d="M211.528 285.238C211.528 283.99 210.517 282.979 209.269 282.979C208.021 282.979 207.01 283.99 207.01 285.238V293.371C207.01 294.618 208.021 295.63 209.269 295.63C210.517 295.63 211.528 294.618 211.528 293.371V285.238Z" fill="var(--color-encre)"/>
<path id="Vector_79" d="M291.946 285.238C291.946 283.99 290.935 282.979 289.687 282.979C288.439 282.979 287.428 283.99 287.428 285.238V293.371C287.428 294.618 288.439 295.63 289.687 295.63C290.935 295.63 291.946 294.618 291.946 293.371V285.238Z" fill="var(--color-encre)"/>
</g>
</svg>
