<svg width="142" height="160" viewBox="0 0 142 160" fill="none" xmlns="http://www.w3.org/2000/svg">
<g id="Frame">
<path id="Vector" d="M12.425 55.1111H129.575L113.6 26.6667C85.2 12.4444 56.8 12.4444 28.4 26.6667L12.425 55.1111Z" fill="var(--color-rose)"/>
<path id="Vector_2" d="M124.25 55.1111H17.75C14.8091 55.1111 12.425 57.4989 12.425 60.4444V147.556C12.425 150.501 14.8091 152.889 17.75 152.889H124.25C127.191 152.889 129.575 150.501 129.575 147.556V60.4444C129.575 57.4989 127.191 55.1111 124.25 55.1111Z" fill="var(--color-pale-periwinkle)"/>
<g id="Group">
<path id="Vector_3" d="M36.3875 67.5556H27.5125C26.042 67.5556 24.85 68.7495 24.85 70.2222V88C24.85 89.4728 26.042 90.6667 27.5125 90.6667H36.3875C37.858 90.6667 39.05 89.4728 39.05 88V70.2222C39.05 68.7495 37.858 67.5556 36.3875 67.5556Z" fill="var(--color-encre)"/>
<path id="Vector_4" d="M63.0125 67.5556H54.1375C52.667 67.5556 51.475 68.7495 51.475 70.2222V88C51.475 89.4728 52.667 90.6667 54.1375 90.6667H63.0125C64.483 90.6667 65.675 89.4728 65.675 88V70.2222C65.675 68.7495 64.483 67.5556 63.0125 67.5556Z" fill="var(--color-encre)"/>
<path id="Vector_5" d="M89.6375 67.5556H80.7625C79.292 67.5556 78.1 68.7495 78.1 70.2222V88C78.1 89.4728 79.292 90.6667 80.7625 90.6667H89.6375C91.108 90.6667 92.3 89.4728 92.3 88V70.2222C92.3 68.7495 91.108 67.5556 89.6375 67.5556Z" fill="var(--color-encre)"/>
<path id="Vector_6" d="M116.263 67.5556H107.388C105.917 67.5556 104.725 68.7495 104.725 70.2222V88C104.725 89.4728 105.917 90.6667 107.388 90.6667H116.263C117.733 90.6667 118.925 89.4728 118.925 88V70.2222C118.925 68.7495 117.733 67.5556 116.263 67.5556Z" fill="var(--color-encre)"/>
<path id="Vector_7" d="M36.3875 108.444H27.5125C26.042 108.444 24.85 109.638 24.85 111.111V128.889C24.85 130.362 26.042 131.556 27.5125 131.556H36.3875C37.858 131.556 39.05 130.362 39.05 128.889V111.111C39.05 109.638 37.858 108.444 36.3875 108.444Z" fill="var(--color-encre)"/>
<path id="Vector_8" d="M66.5402 108.8H55.2246C53.3498 108.8 51.8299 111.059 51.8299 113.846V147.487C51.8299 150.274 53.3498 152.533 55.2246 152.533H69.9349V113.846C69.9349 111.059 68.4151 108.8 66.5402 108.8Z" fill="var(--color-encre)"/>
<path id="Vector_9" d="M88.9052 108.8H77.5896C75.7148 108.8 74.1949 111.059 74.1949 113.846V152.533H88.9052C90.7801 152.533 92.2999 150.274 92.2999 147.487V113.846C92.2999 111.059 90.7801 108.8 88.9052 108.8Z" fill="var(--color-encre)"/>
<path id="Vector_10" d="M116.263 108.444H107.388C105.917 108.444 104.725 109.638 104.725 111.111V128.889C104.725 130.362 105.917 131.556 107.388 131.556H116.263C117.733 131.556 118.925 130.362 118.925 128.889V111.111C118.925 109.638 117.733 108.444 116.263 108.444Z" fill="var(--color-encre)"/>
</g>
<path id="Vector_11" d="M12.425 97.5223H129.575V114.968C124.694 124.418 119.812 124.418 114.931 114.968C110.05 124.418 105.169 124.418 100.287 114.968C95.4062 124.418 90.525 124.418 85.6437 114.968C80.7625 124.418 75.8812 124.418 71 114.968C66.1187 124.418 61.2375 124.418 56.3562 114.968C51.475 124.418 46.5937 124.418 41.7125 114.968C36.8312 124.418 31.95 124.418 27.0687 114.968C22.1875 124.418 17.3062 124.418 12.425 114.968V97.5223Z" fill="var(--color-gold)"/>
<path id="Vector_12" d="M129.575 97.5223H12.425V115.656H129.575V97.5223Z" fill="var(--color-gold)"/>
<g id="Vector_13">
<path d="M42.245 97.5223V115.656ZM71.5325 97.5223V115.656ZM100.82 97.5223V115.656Z" fill="black"/>
<path d="M42.245 97.5223V115.656M71.5325 97.5223V115.656M100.82 97.5223V115.656" stroke="var(--color-pale-gold)" stroke-width="6.5625"/>
</g>
<g id="Vector_14">
<path d="M12.425 140.8H51.83Z" fill="black"/>
<path d="M12.425 140.8H51.83" stroke="var(--color-periwinkle)" stroke-width="4"/>
</g>
<g id="Vector_15">
<path d="M92.3 140.8H129.575Z" fill="black"/>
<path d="M92.3 140.8H129.575" stroke="var(--color-periwinkle)" stroke-width="4"/>
</g>
</g>
</svg>
